<?xml version="1.0" encoding="UTF-8" standalone="no"?>
<svg width="259px" height="100px" viewBox="0 0 259 100" version="1.1" xmlns="http://www.w3.org/2000/svg" xmlns:xlink="http://www.w3.org/1999/xlink">
    <!-- Generator: Sketch 45 (43475) - http://www.bohemiancoding.com/sketch -->
    <title>Hydro-Blu-100</title>
    <desc>Created with Sketch.</desc>
    <defs></defs>
    <g id="Page-1" stroke="none" stroke-width="1" fill="none" fill-rule="evenodd">
        <g id="Hydro-Blu-100" fill-rule="nonzero" fill="#0971F5">
            <path d="M78.21,62.75 L78,62.75 L64.55,27.75 L51.2,27.75 L71.89,75.9 L69.48,82 C68.94,83.27 68.48,84.37 67.97,85.31 C67.5539488,86.1701028 67.0149701,86.9650964 66.37,87.67 C65.7590258,88.3128094 65.0004147,88.7968102 64.16,89.08 C63.1184012,89.40465 62.0306947,89.5566586 60.94,89.53 C60.2208365,89.5267384 59.5026493,89.4766323 58.79,89.38 C57.9880924,89.2696382 57.1980774,89.0855245 56.43,88.83 L55.43,99.27 C56.469095,99.5273868 57.5250475,99.711176 58.59,99.82 C59.59,99.92 60.65,99.97 61.66,99.97 C63.9823083,100.018629 66.2985845,99.7151866 68.53,99.07 C70.3548096,98.5193956 72.0536537,97.6156105 73.53,96.41 C74.975783,95.1885562 76.2003548,93.7271888 77.15,92.09 C78.2339084,90.2072863 79.173276,88.2449775 79.96,86.22 L102.75,27.68 L90.16,27.68 L78.21,62.75 Z" id="Shape"></path>
            <path d="M40.21,32.33 C38.7129897,30.4960729 36.8276734,29.0171926 34.69,28 C32.1583936,26.8390079 29.3941042,26.2745181 26.61,26.35 C24.9178882,26.3347994 23.2328817,26.5707003 21.61,27.05 C20.1580159,27.4785272 18.771739,28.1043707 17.49,28.91 C16.3309237,29.6434082 15.2691788,30.5203557 14.33,31.52 C13.4863072,32.4025798 12.7906852,33.4156216 12.27,34.52 L12.07,34.52 L12.07,0 L0,0 L0,75.9 L12.05,75.9 L12.05,49.6 C12.0469992,48.0005877 12.2829361,46.4096993 12.75,44.88 C13.2003102,43.3758041 13.9147885,41.9637783 14.86,40.71 C15.7924159,39.4614863 16.9915162,38.4366143 18.37,37.71 C19.9241552,36.9471497 21.6391833,36.5698436 23.37,36.61 C25.0121328,36.5291969 26.6402435,36.9475551 28.04,37.81 C29.1868613,38.5852217 30.1190861,39.6378445 30.75,40.87 C31.403496,42.1635693 31.8264942,43.5611552 32,45 C32.1960314,46.4484803 32.2962492,47.9083196 32.3,49.37 L32.3,75.9 L44.38,75.9 L44.38,45.78 C44.3849789,43.3351912 44.0483927,40.9016731 43.38,38.55 C42.7472481,36.2865809 41.6695758,34.1720314 40.21,32.33 Z" id="Shape"></path>
            <path d="M146.89,33.84 L146.59,33.84 C145.893336,32.9386949 145.120492,32.0989376 144.28,31.33 C143.256536,30.395468 142.125204,29.586414 140.91,28.92 C139.468857,28.1219504 137.938172,27.497592 136.35,27.06 C134.417871,26.53524 132.421938,26.2828033 130.42,26.31 C124.009173,26.2279909 117.869424,28.8920671 113.55,33.63 C111.444199,35.9621705 109.807679,38.6783857 108.73,41.63 C107.579468,44.8165965 107.003868,48.1821633 107.03,51.57 C107.005551,54.9730494 107.563605,58.3551899 108.68,61.57 C109.717222,64.5576974 111.319691,67.3178833 113.4,69.7 C117.780208,74.6473388 124.113714,77.4191617 130.72,77.28 C134.045068,77.2994572 137.328803,76.5427259 140.31,75.07 C143.229629,73.6686747 145.666328,71.4303919 147.31,68.64 L147.51,68.64 L147.51,75.9 L158.96,75.9 L158.96,0 L146.89,0 L146.89,33.84 Z M146.34,57.38 C145.717804,59.2069457 144.761576,60.9023848 143.52,62.38 C142.286466,63.8530886 140.769858,65.0636546 139.06,65.94 C135.26934,67.7701479 130.85066,67.7701479 127.06,65.94 C125.380102,65.0569165 123.90746,63.8263055 122.74,62.33 C121.588884,60.8334011 120.721269,59.1388409 120.18,57.33 C119.62028,55.5090144 119.333828,53.6150617 119.33,51.71 C119.330912,49.8178232 119.617474,47.9366262 120.18,46.13 C120.724588,44.3224942 121.591907,42.6285112 122.74,41.13 C123.876523,39.6221513 125.330909,38.3828508 127,37.5 C128.901388,36.5633527 131.001013,36.1002001 133.12,36.15 C135.182891,36.1110837 137.222334,36.5925711 139.05,37.55 C140.755987,38.4580837 142.270418,39.6872849 143.51,41.17 C144.755066,42.6451932 145.711682,44.3413208 146.33,46.17 C146.95166,47.9788302 147.272582,49.8773388 147.28,51.79 C147.279651,53.6926369 146.961959,55.5818914 146.34,57.38 Z" id="Shape"></path>
            <path d="M199.4,26.31 C196.39231,26.2549478 193.446876,27.1701362 191,28.92 C188.575906,30.6770671 186.64131,33.0247443 185.38,35.74 L185.18,35.74 L185.18,27.74 L173.59,27.74 L173.59,75.9 L185.59,75.9 L185.59,50.1 C185.633873,48.9157709 185.801451,47.7393749 186.09,46.59 C186.459657,45.0461668 187.106841,43.5823774 188,42.27 C189.042873,40.7767657 190.410419,39.5391366 192,38.65 C194.031466,37.5633541 196.318554,37.0451317 198.62,37.15 C199.174859,37.1493142 199.729236,37.1827104 200.28,37.25 C200.974089,37.3417675 201.662006,37.4753437 202.34,37.65 L202.34,26.65 C201.883936,26.5014111 201.409349,26.4172646 200.93,26.4 C200.37,26.32 199.87,26.31 199.4,26.31 Z" id="Shape"></path>
            <path d="M258.88,51.39 C258.437754,37.309472 246.818501,26.1667418 232.731801,26.3141785 C218.645101,26.4616153 207.261615,37.845101 207.114179,51.9318008 C206.966742,66.0185007 218.109472,77.6377543 232.19,78.08 C239.335064,78.3044144 246.254941,75.5645695 251.309755,70.5097551 C256.364569,65.4549408 259.104414,58.5350636 258.88,51.39 Z M233,69.08 C225.85,69.08 220.05,63.01 220.05,55.51 C220.05,51.37 223.023333,45.77 228.97,38.71 C229.636667,37.87 230.736667,36.6266667 232.27,34.98 C232.458794,34.7812692 232.720889,34.6687489 232.995,34.6687489 C233.269111,34.6687489 233.531206,34.7812692 233.72,34.98 C235.13,36.52 236.16,37.69 236.83,38.48 C242.91,45.64 245.946667,51.3066667 245.94,55.48 C245.94,63 240.15,69.08 233,69.08 Z" id="Shape"></path>
        </g>
    </g>
</svg>